	<svg display="none" version="1.1" xmlns="http://www.w3.org/2000/svg" xmlns:xlink="http://www.w3.org/1999/xlink" width="272" height="32" viewBox="0 0 272 32">
		<defs>
			<g id="icon-cart">
				<path class="path1" d="M26.476 18c1.1 0 2.247-0.865 2.549-1.923l2.901-10.154c0.302-1.058-0.351-1.923-1.451-1.923h-20.476c0-2.209-1.791-4-4-4h-6v4h6v17c0 1.657 1.343 3 3 3h19c1.105 0 2-0.895 2-2s-0.895-2-2-2h-18v-2h16.476zM10 8h18.088l-1.714 6h-16.373v-6zM12 29.5c0 1.375-1.125 2.5-2.5 2.5h-1c-1.375 0-2.5-1.125-2.5-2.5v-1c0-1.375 1.125-2.5 2.5-2.5h1c1.375 0 2.5 1.125 2.5 2.5v1zM30 29.5c0 1.375-1.125 2.5-2.5 2.5h-1c-1.375 0-2.5-1.125-2.5-2.5v-1c0-1.375 1.125-2.5 2.5-2.5h1c1.375 0 2.5 1.125 2.5 2.5v1z"></path>
			</g>
			<g id="icon-pushpin">
				<path class="path1" d="M17 0l-3 3 3 3-7 8h-7l5.5 5.5-8.5 11.269v1.231h1.231l11.269-8.5 5.5 5.5v-7l8-7 3 3 3-3-15-15zM14 17l-2-2 7-7 2 2-7 7z"></path>
			</g>
			<g id="icon-location">
				<path class="path1" d="M16 0c-5.523 0-10 4.477-10 10 0 10 10 22 10 22s10-12 10-22c0-5.523-4.477-10-10-10zM16 16.125c-3.383 0-6.125-2.742-6.125-6.125s2.742-6.125 6.125-6.125 6.125 2.742 6.125 6.125-2.742 6.125-6.125 6.125zM12.125 10c0-2.14 1.735-3.875 3.875-3.875s3.875 1.735 3.875 3.875c0 2.14-1.735 3.875-3.875 3.875s-3.875-1.735-3.875-3.875z"></path>
			</g>
			<g id="icon-compass">
				<path class="path1" d="M16 0c-8.837 0-16 7.163-16 16s7.163 16 16 16 16-7.163 16-16-7.163-16-16-16zM16 29c-7.18 0-13-5.82-13-13s5.82-13 13-13 13 5.82 13 13-5.82 13-13 13zM19 13l-9-5h-2v2l5 9 9 5h2v-2l-5-9zM16 18c-1.105 0-2-0.895-2-2s0.895-2 2-2c1.105 0 2 0.895 2 2s-0.895 2-2 2z"></path>
			</g>
			<g id="icon-alarm">
				<path class="path1" d="M16 4c-7.732 0-14 6.268-14 14s6.268 14 14 14 14-6.268 14-14-6.268-14-14-14zM16 29.25c-6.213 0-11.25-5.037-11.25-11.25s5.037-11.25 11.25-11.25c6.213 0 11.25 5.037 11.25 11.25s-5.037 11.25-11.25 11.25zM29.212 8.974c0.501-0.877 0.788-1.892 0.788-2.974 0-3.314-2.686-6-6-6-1.932 0-3.65 0.913-4.747 2.331 4.121 0.851 7.663 3.287 9.96 6.643zM12.748 2.331c-1.097-1.418-2.816-2.331-4.748-2.331-3.314 0-6 2.686-6 6 0 1.082 0.287 2.098 0.788 2.974 2.297-3.356 5.838-5.792 9.96-6.643zM14 10h2v10h-2v-10zM16 18h6v2h-6v-2z"></path>
			</g>
			<g id="icon-tv">
				<path class="path1" d="M30.662 9.003c-2.775-0.399-5.731-0.688-8.815-0.851l5.153-5.153-2-2-7.017 7.017c-0.656-0.011-1.317-0.017-1.983-0.017v0l-8-8-2 2 6.069 6.069c-3.779 0.133-7.386 0.454-10.731 0.935-0.86 3.366-1.338 7.086-1.338 10.997s0.477 7.63 1.338 10.997c4.489 0.645 9.448 1.003 14.662 1.003s10.173-0.358 14.662-1.003c0.86-3.366 1.338-7.086 1.338-10.997s-0.477-7.63-1.338-10.997zM26.997 27.331c-3.367 0.43-7.086 0.669-10.997 0.669s-7.63-0.239-10.997-0.669c-0.645-2.244-1.003-4.724-1.003-7.331s0.358-5.087 1.003-7.331c3.366-0.43 7.086-0.669 10.997-0.669s7.63 0.239 10.996 0.669c0.645 2.244 1.004 4.724 1.004 7.331s-0.358 5.087-1.003 7.331z"></path>
			</g>
		</defs>
	</svg>